<?xml version="1.0" encoding="UTF-8"?><svg xmlns="http://www.w3.org/2000/svg" viewBox="0 0 1501.89 1122"><defs><style>.cls-1{fill:#37454d;}.cls-2{fill:#fff;}.cls-3{fill:#4f3c22;}.cls-4{opacity:.06;}.cls-5{fill:#3c657c;}.cls-6{isolation:isolate;}.cls-7{fill:#b22759;}.cls-8{fill:#4498c5;}.cls-9{fill:#dddad7;}.cls-10{opacity:.05;}.cls-11{fill:#c4d3d3;}.cls-12{fill:#a08a78;}.cls-13{fill:#bcac98;}.cls-14{fill:#3a3029;}.cls-15{fill:#9e6652;}.cls-16{fill:#066598;}.cls-17{fill:#d3c2a4;}.cls-18{fill:#928475;}.cls-19{fill:#757573;}.cls-20{fill:#c69c6d;}.cls-21{opacity:.34;}.cls-22{fill:#a8c9d6;}.cls-23{fill:#bbc9c9;}.cls-24{fill:#aeb8bd;}.cls-25{fill:#d1a573;}.cls-26{fill:#62717a;}.cls-27{fill:#5e859e;}.cls-28{fill:#b3d6e4;}.cls-29{fill:#59595b;}.cls-30{opacity:.47;}.cls-31,.cls-32{mix-blend-mode:multiply;}.cls-31,.cls-32,.cls-33{opacity:.12;}.cls-34{fill:#e4e4e4;}.cls-35{opacity:.32;}.cls-36{opacity:.26;}.cls-32{fill:#606060;}.cls-37{fill:#8c9498;}.cls-38{fill:#cc9ea4;}.cls-39{fill:#446072;}.cls-40{fill:#464647;}.cls-41{fill:#c2969c;}.cls-42{fill:#eacdb0;}.cls-43{fill:#bfbebe;}.cls-44{fill:#dacaaf;}.cls-45{fill:#fffff1;}.cls-46{fill:#404f5a;}.cls-47{fill:#6bac8f;}</style></defs><g class="cls-6"><g id="background"><rect class="cls-2" x="-.06" width="1502" height="1122"/></g><g id="shadow"><path class="cls-32" d="M1338.77,880.8H289.46c-30.34,0-55.17,15.04-55.17,33.43h0c0,12.73,11.91,23.85,29.31,29.49h-84.48c-30.34,0-55.17,15.04-55.17,33.43h0c0,18.38,24.83,33.43,55.17,33.43h29.44c-8.22,5.84-13.21,13.4-13.21,21.63v13.37c0,18.38,24.83,33.43,55.17,33.43H1285.55c30.34,0,55.17-15.04,55.17-33.43v-13.37c0-18.38-24.83-33.43-55.17-33.43l-64.26,.74c4.89,0,12.84-2.34,18.17-7.04,9.35-8.25,9.76-20.8,5.19-31.19-2.96-6.74-7.71-12.08-19.47-14.09l113.59,.45c30.34,0,55.17-15.04,55.17-33.43h0c0-18.38-24.83-33.43-55.17-33.43Z"/></g><g id="object"><g><polygon class="cls-23" points="578.02 392.11 600.96 406.02 657.94 513 765.94 554 764.94 579 646.94 561 578.02 392.11"/><polygon class="cls-42" points="765.94 554 788.94 552 812.94 568 806.94 573 789.44 568.59 783.94 579 796.05 586.26 781.94 591 764.94 579 765.94 554"/><g><g><polygon class="cls-14" points="473.34 995.08 472.85 1009.12 500.77 1023.99 515.47 1010.36 501.75 995.9 473.83 981.03 473.34 995.08"/><polygon class="cls-19" points="514.61 646.99 461.08 656.64 493.07 798.98 472.01 990.51 499.99 996.9 573.41 765.74 573.61 696.66 568.14 655.76 514.61 646.99"/></g><g><polygon class="cls-19" points="649.06 579.71 650.87 758.96 616.3 990.02 590 989.98 573.73 776.7 538.08 563.39 649.06 579.71"/><polygon class="cls-14" points="590.15 986.88 590.13 1000.93 618.55 1015.02 632.79 1001 618.59 986.93 590.15 986.88"/></g><path class="cls-23" d="M444.24,662.46c.36,7.96,11.73,59.77,9.3,61.2,11.94-4.19,24.05-7.88,36.29-11.06,32.22-8.38,65.34-13.29,98.61-14.62,15.07-.6,30.93-1.6,45.83,1.11,7.3,1.33,14.46,3.36,21.64,5.2,1.85,.47,20.9,3.93,20.94,4.22-3.41-22.95-2.44-45.93-3.98-69.09-1.56-23.41-4.45-46.74-8.66-69.83-6.59-36.17-24.84-66.18-39.42-99.72-7.24-16.65-13.97-33.64-23.32-49.26-7.33-12.23-20.11-29.96-34.38-34.6-4.83-1.57-10.03-1.39-15.11-1.2-15.4,.59-30.8,1.19-46.19,1.78-5.61,.22-11.45,.49-16.4,3.14-7.42,3.97-11.21,12.3-14.48,20.06-14.69,34.77-23.07,71.75-26.6,109.55-1.85,19.73-3.46,39.49-4.41,59.28-1.07,22.08-1.33,44.21-.21,66.28,.12,2.45,.2,9.34,.57,17.57Z"/><path class="cls-45" d="M536.51,480.07c1.25,9.9,.68,19.93,.1,29.87-3.5,60.57-18.79,134.86-22.29,195.43,38.83-7.18,86.86-8.04,139.21-1.72-3.01-22.4-9.73-66.37-12.74-88.77-1.93-14.36-3.87-28.78-7.49-42.75-5.84-22.55-15.93-43.46-25.94-64.18-18.5-38.27-36.99-76.55-55.49-114.82-.99-2.05-2.03-4.16-3.69-5.57-1.99-1.69-4.59-2.12-7.06-2.44-11.95-1.54-25.41-2.62-37.13,.16-2.13,12.51,10.24,33.19,15.06,44.37,7.02,16.27,15.17,32.34,17.45,50.43Z"/><g><path class="cls-34" d="M577.85,306.96c2.53,7.83,2.77,16.29,1.45,24.41-.35,2.16-.72,4.66,.74,6.28,1.57,1.74-.68,4.37,1.11,2.85,1.79-1.51,7.88-6.8,8.57-9.04,1.62-5.24,2.74-10.64,3.34-16.09,.52-4.74,.58-9.8-1.72-13.98-1.37-2.48-3.46-4.46-5.54-6.39-3-2.8-6.11-5.63-9.9-7.19-6.54-2.69-11.23-1.12-6.21,4.88,3.59,4.3,6.43,8.9,8.16,14.26Z"/><path class="cls-42" d="M516.5,389.44c9.18,2.83,18.36,5.66,27.54,8.49,3.11-7.79,5.66-15.83,7.62-24.02,8.45,.3,18.59-.33,23.16-8.29,1.44-2.51,2.08-5.43,2.7-8.29,2.56-11.82,5.11-23.63,7.67-35.45,.88-4.09,1.77-8.3,1.17-12.39-1.07-7.18-6.49-12.46-12.09-16.23-14.31-9.64-32.59-13.2-48.92-7.14-4.35,1.61-8.62,3.96-11.71,7.72-4.77,5.79-6.02,13.9-7.05,21.52-.96,7.03-1.91,14.05-2.87,21.08-1.1,8.08-1.82,17.5,3.49,23,2.82,2.92,6.97,4.21,9.2,7.7,3.93,6.14-.25,14.73,.1,22.32Z"/><path class="cls-34" d="M581.37,353.22c.33-2.22,.71-8.85-3.43-5.5-1.08,.88-1.61,2.33-1.96,3.72-.35,1.4-.59,2.86-1.31,4.09-1.65,2.83-5.31,3.51-8.29,2.83-1.19-.27-2.36-.72-3.29-1.54-.9-.8-1.52-1.89-2.12-2.97-1.46-2.61-2.93-5.22-4.39-7.83-2.52-4.49-9.42-4.21-14-4.56-5.28-.4-10.74,.08-15.64,2.58-.49,.25-.98,.52-1.47,.8-1.19,.66-2.39,1.31-3.69,1.64-4.37,1.1-8.86-1.94-10.89-6.13-.93-1.92-1.67-4.3-3.59-4.99-1.5-.54-3.24,.26-4.34,1.54-1.1,1.28-1.67,2.97-2.13,4.62-1.67,6.03-2.14,12.51-.62,18.49,3.29,12.96,14.1,16.72,25.32,18.79,4.43,.82,8.87,1.63,13.3,2.45,8.11,1.49,16.71,2.94,24.48-.33,6.86-2.89,11.89-9.18,14.89-16.24,1.55-3.65,2.59-7.52,3.17-11.45Zm-33,10.5c-4.85,1.97-9.56,1.15-14-1.27-1.89-1.03-.33-4.23,1.56-3.2,3.68,2,7.39,2.74,11.42,1.1,2.03-.83,3.03,2.54,1.01,3.36Z"/><path class="cls-34" d="M596.45,289.44c1.38-2.71,2.56-5.51,3.55-8.38-2.93,.39-5.96,.02-8.71-1.05,.35-1.7,.7-3.41,1.05-5.11,.28-1.42-18.66-6.41-20.19-6.86-14.32-4.24-27.4-8.15-42.2-3.09-12.64,4.33-21.94,12.79-26.37,25.41-4.24,12.05-3.56,29.1,1.46,40.88,.65-3.31,.37-11.49,1.81-14.47,1.13-3.04,2.85-5.85,4.94-8.33,4.16-4.96,9.78-8.7,15.83-10.94,9.65-3.57,20.17-4.32,30.37-3.64,9.35,.63,20.66,1.77,29.13,6.05,4.07,2.06,4.56,3.29,8.08-.52,.62-.67,6.14-8.87,5.79-8.95-1.51-.34-3.02-.68-4.53-1.02Z"/></g></g><g><g><path class="cls-46" d="M1167.42,989.4l.76,20.35-13.06,14.08-10.53,.4c-4.51,.17-7.63-4.47-5.76-8.58l2.21-4.87,6.27-13.82,6.27-13.82,13.82,6.27Z"/><polygon class="cls-26" points="1196.48 744.94 1184.53 887.84 1172.67 995.99 1141.44 997.17 1129.53 888.17 1114.62 748.02 1196.48 744.94"/></g><g><path class="cls-46" d="M1247.19,975.89l.98,20.34-12.91,14.22-10.52,.51c-4.51,.22-7.67-4.39-5.85-8.52l2.16-4.89,6.13-13.89,6.13-13.89,13.89,6.13Z"/><polygon class="cls-26" points="1273.66 731.15 1257.41 874.34 1252.5 982.43 1221.29 983.94 1202.02 876.26 1191.83 735.09 1273.66 731.15"/></g><g><g><path class="cls-9" d="M1108.79,313.15c1.74,12.63,6.69,24.81,14.26,35.08-2.46-11.66-4.08-23.61-3.17-35.49,.92-11.88,4.5-23.76,11.66-33.29-.83,1.11-10.76-.19-13.06,.89-3.18,1.5-5.03,4.48-6.59,7.59-3.83,7.68-4.26,16.86-3.11,25.23Z"/><path class="cls-12" d="M1191.65,396.46c-10.83,3.16-20.46,5.58-31.69,6.44-.81-7.23-2.38-14.38-4.7-21.28-1.55-4.62-6.55-4.33-10.53-4.98-3.64-.59-7.06-1.96-9.9-4.35-2.15-1.81-3.88-4.06-5.47-6.39-4.91-7.22-7.32-15.88-9.94-24.13-5.26-16.55-12.86-35.78,.05-50.75,7.77-8.97,19.4-14.49,30.86-16.88,8.56-1.79,17.52-2.25,26-.16,8.49,2.09,16.48,6.89,21.41,14.11,5.75,8.42,6.14,18.08,6.32,27.89,.24,12.6,5.35,23.33-1.07,35.26-2.3,4.28-5.26,8.17-7.99,12.2-2.96,4.38-4.86,10.72-4.89,16.04-.01,1.67,2.6,16.66,1.52,16.98Z"/><path class="cls-9" d="M1142.29,279.94c-5.65,.57-11.22,1.96-16.92,1.95-5.7,0-11.77-1.62-16-6.14,16.38-5.85,32.39-20.1,49.48-20.99,13.62-.71,32.4,15.99,41.18,28.25,8.54,11.94,7.89,29.87,3.95,44.17-1.91-5.67-1.31-11.93-3.22-17.55-2.43-7.17-8.73-12.8-14.23-16.91-13.06-9.76-29.05-14.32-44.25-12.78Z"/></g><path class="cls-9" d="M1152.82,344.02c-7.4-.68-15.99,.56-19.94,6.42-2.73,4.07-2.46,9.23-2.76,14.05-.3,4.82-1.73,10.23-6.26,12.49,3.68,1.41,7.96,1.01,11.52-.58s6.46-4.28,8.72-7.3c2-2.67,3.65-5.74,6.58-7.51,2.15-1.3,4.74-1.76,7.24-2.3,2.5-.54,5.08-1.26,6.91-2.93,7.33-6.68-6.79-11.87-12.01-12.35Z"/><path class="cls-9" d="M1176.05,339.69c6.66-3.3,15.12-5.23,20.91-1.19,4.02,2.81,5.62,7.73,7.64,12.11,2.01,4.39,5.3,8.92,10.34,9.4-2.92,2.64-7.06,3.81-10.95,3.61-3.9-.2-7.56-1.66-10.76-3.67-2.83-1.77-5.48-4.04-8.84-4.64-2.47-.44-5.06,.07-7.58,.46-2.53,.39-5.19,.66-7.5-.24-9.25-3.59,2.06-13.52,6.75-15.85Z"/></g><path class="cls-23" d="M1287.94,465c-18.48-52.81-50-81-68.48-83.9-.31-.61-.48-.94-.48-.94l-.68,.09c-.22-.16-.36-.25-.36-.25l-.15,.31-70.66,9.21s-2.42,2.48-6.18,7.03c0,0-18.02,28.44-15.02,68.44,3,40,4,142-10,182s-43.89,107.5-19.45,111.75c32.91,5.84,108.81,15.88,172.58-1.31l53.13-17.49s-.02-.16-.06-.45c14.52-33.29-13.31-214.79-34.21-274.5Z"/><polygon class="cls-23" points="1166.94 403 1146.94 390 1119.94 408 1052.94 561 1065.94 591 1100.94 579 1149.94 503 1166.94 403"/><g><g><path class="cls-16" d="M1215.91,401.45c-65.92,27.26-106.51,1.69-112.05-2.17,0,0-.18-.45-.33-.23-.22-.16-.23,.33-.23,.33-3.84,5.55-32.9,43.73-104.19,41.28,0,0,11.79,125.33,60.89,168.44,52.44,46.05,91.43,55.79,91.58,55.62,.21,.11,33.68-22.42,66.3-84.18,30.52-57.78-1.97-179.1-1.97-179.1Z"/><path class="cls-8" d="M1208.17,415.96c-59.86,24.48-96.59,1.82-101.61-1.6,0,0-.16-.4-.3-.21-.2-.14-.21,.3-.21,.3-3.5,4.96-29.97,39.05-94.61,37.09,0,0,10.32,111.61,54.71,149.87,47.42,40.87,83.25,52.37,83.39,52.22,.19,.09,30.11-23.02,59.88-78.13,27.85-51.56-1.25-159.54-1.25-159.54Z"/><g class="cls-4"><path d="M1107.99,425.29s.01-.45,.22-.31c.14-.21,.31,.22,.31,.22,5.15,3.51,42.25,26.39,102.8,3.11-2.33-11.14-4.19-18.05-4.19-18.05-59.86,24.48-96.59,1.82-101.61-1.6,0,0-.16-.4-.3-.21-.2-.14-.21,.3-.21,.3-3.5,4.96-29.97,39.05-94.61,37.09,0,0,.66,7.12,2.36,18.37,64.9,.61,91.64-33.83,95.24-38.92Z"/></g></g><g class="cls-21"><path class="cls-2" d="M1195.24,449.83c-45.19,18.69-78.82,1.04-82.63-1.6,0,0-.12-.31-.23-.16-.15-.11-.16,.23-.16,.23-2.63,3.81-27.67,32-76.54,30.33,0,0,13.19,83.9,46.85,113.46,35.95,31.57,62.68,38.25,62.79,38.13,.14,.07,23.09-15.37,45.45-57.71,20.92-39.61,4.45-122.68,4.45-122.68Z"/></g></g><polygon class="cls-11" points="1217.94 380 1258.94 392 1343.94 516 1325.94 552 1196.94 552 1196.94 522 1293.94 509 1247.94 461 1217.94 380"/></g><g><g><g><path class="cls-29" d="M894.94,797.96c46.31,0,83.79,53.82,83.79,120.21s-37.54,120.21-83.85,120.21-83.85-53.82-83.85-120.21,37.54-120.21,83.85-120.21h.06Zm-.06-11.63c-13.48,0-26.49,3.75-38.67,11.13-11.38,6.9-21.53,16.67-30.16,29.05-17.19,24.64-26.65,57.19-26.65,91.65s9.47,67.02,26.65,91.65c8.63,12.38,18.78,22.15,30.16,29.05,12.18,7.39,25.19,11.13,38.67,11.13,13.48,0,26.49-3.75,38.67-11.13,11.38-6.9,21.53-16.67,30.16-29.05,17.19-24.64,26.65-57.19,26.65-91.65s-9.47-67.02-26.65-91.65c-8.63-12.38-18.78-22.15-30.16-29.05-12.18-7.39-25.19-11.13-38.67-11.13h0Z"/><path class="cls-24" d="M894.94,807.65c19.14,0,37.31,11.03,51.28,31.06,14.71,21.09,22.82,49.31,22.82,79.45s-8.1,58.36-22.82,79.45c-13.97,20.03-32.21,31.06-51.34,31.06-19.14,0-37.37-11.03-51.34-31.06-14.71-21.09-22.82-49.31-22.82-79.45s8.1-58.36,22.82-79.45c13.97-20.03,32.21-31.06,51.34-31.06h.06Zm-.06-9.69c-46.31,0-83.85,53.82-83.85,120.21s37.54,120.21,83.85,120.21,83.85-53.82,83.85-120.21-37.54-120.21-83.85-120.21h0Z"/><rect class="cls-24" x="893.43" y="804.74" width="2.91" height="112.93"/><rect class="cls-24" x="869.53" y="821.32" width="2.91" height="102.29" transform="translate(-306.73 508.05) rotate(-27.86)"/><rect class="cls-24" x="855.38" y="848.69" width="2.91" height="89.97" transform="translate(-356.16 1141.62) rotate(-57.76)"/><rect class="cls-24" x="811.03" y="916.22" width="83.85" height="2.91"/><rect class="cls-24" x="814.53" y="939.45" width="87.07" height="2.91" transform="translate(-369.59 602.62) rotate(-32.23)"/><rect class="cls-24" x="818.64" y="962.17" width="103.93" height="2.91" transform="translate(-388.21 1282.86) rotate(-62.13)"/><rect class="cls-24" x="893.43" y="917.68" width="2.91" height="112.93"/><rect class="cls-24" x="917.74" y="911.65" width="2.91" height="104.06" transform="translate(-343.76 541.15) rotate(-27.86)"/><rect class="cls-24" x="930.69" y="897.13" width="2.91" height="88.1" transform="translate(-361.2 1227.48) rotate(-57.76)"/><rect class="cls-24" x="894.88" y="916.22" width="79.42" height="2.91"/><rect class="cls-24" x="888.21" y="893.15" width="86.49" height="2.91" transform="translate(-333.59 634.63) rotate(-32.23)"/><rect class="cls-24" x="866.94" y="869.86" width="104.88" height="2.91" transform="translate(-280.62 1276.83) rotate(-62.13)"/><g><ellipse class="cls-24" cx="894.88" cy="918.16" rx="12.17" ry="17.45"/><path class="cls-29" d="M894.94,900.71c6.72,0,12.11,7.81,12.11,17.45s-5.45,17.45-12.17,17.45-12.17-7.81-12.17-17.45,5.45-17.45,12.17-17.45h.06Zm-.06-4.85c-9.54,0-17.02,9.79-17.02,22.3s7.48,22.3,17.02,22.3c9.54,0,17.02-9.79,17.02-22.3s-7.48-22.3-17.02-22.3h0Z"/></g></g><rect class="cls-39" x="714.09" y="602.14" width="180.31" height="52.35"/><g><polygon class="cls-39" points="875.14 773.24 1045.62 773.24 1045.62 862.42 874.04 862.42 875.14 773.24"/><path class="cls-24" d="M901.67,919.13h-14.54v-316.99c0-4.32-1.15-7.5-3.53-9.73-4.34-4.07-12.21-4.52-14.87-4.35l-.5,.02h-31.02v-14.54h30.79c2.63-.16,16.16-.46,25.46,8.18,5.37,4.99,8.21,12.05,8.21,20.42v316.99Z"/><rect class="cls-39" x="798.43" y="570.15" width="59.13" height="21.33" rx="6.18" ry="6.18"/><path class="cls-24" d="M1052.89,1016.6h-14.54v-251.6c0-15.16-5.31-26.52-15.77-33.77-6.83-4.73-13.7-6.17-15.33-6.46h-112.37v-14.54h113.4l.46,.06c.46,.06,11.33,1.52,22.12,8.99,10.05,6.96,22.03,20.54,22.03,45.72v251.6Z"/><rect class="cls-24" x="869.19" y="858.27" width="176.43" height="14.54"/><rect class="cls-40" x="1037.87" y="962.75" width="15.51" height="48.47"/><g><g><circle class="cls-24" cx="1023.81" cy="1018.49" r="30.54"/><path class="cls-29" d="M1023.94,1002.5c8.82,0,15.86,7.18,15.86,16s-7.18,16-16,16-16-7.18-16-16,7.18-16,16-16h.13Zm-.13-14.54c-16.86,0-30.54,13.67-30.54,30.54s13.67,30.54,30.54,30.54,30.54-13.67,30.54-30.54-13.67-30.54-30.54-30.54h0Z"/></g><path class="cls-40" d="M1040.5,992.01l-20.54,20.54c-2.06,1.39-3.42,3.75-3.42,6.43,0,4.28,3.47,7.76,7.76,7.76,2.79,0,5.22-1.48,6.59-3.68l20.33-20.33-10.71-10.71h0Z"/></g><polygon class="cls-24" points="1129.48 1025.77 1057.44 1025.77 1039.99 925.16 872.1 925.16 872.1 910.62 1052.23 910.62 1069.68 1011.22 1129.48 1011.22 1129.48 1025.77"/><rect class="cls-39" x="1067.92" y="1006.38" width="63.98" height="21.33" rx="6.43" ry="6.43"/></g><path class="cls-27" d="M1037.87,857.74l-12.83-13.13c-3.71-3.8-8.82-5.94-14.16-5.94h-136.83v19.39l163.83-.32Z"/><g><g><polygon class="cls-15" points="916.69 786.32 969.04 853.21 961.29 991.84 931.23 991.84 922.51 865.81 845.93 839.64 916.69 786.32"/><polygon class="cls-15" points="972.92 786.32 1040.78 825.1 1090.22 986.02 1063.07 998.62 1000.06 853.21 943.84 836.73 909.91 804.74 972.92 786.32"/><g><path class="cls-42" d="M800.63,564.99c8.69,.85,17.38,1.7,26.07,2.55,1.41,.14,1.59-20.68,2.45-22.3,1.14-2.15,5.16-2.82,7.23-4.26,2.81-1.94,5.18-4.5,7.07-7.32,8.36-12.52,5.88-26.98,6.05-41.33,.04-3.8,.07-7.72-1.22-11.25-2.26-6.2-8.05-9.91-13.73-12.26-14.5-5.98-31.42-5.82-44.86,2.55-3.58,2.23-6.95,5.1-9.03,9-3.24,6.1-2.53,13.11-2.7,19.74-.18,7.33,1.14,15.09,3.53,22.08,2.41,7.03,6.48,13.68,12.52,18.01,8.38,6.02,4.33,15.74,6.6,24.78Z"/><path class="cls-34" d="M783.12,507.24c-.75-1.18-1.45-2.38-1.79-3.73-1.23-4.86,4.35-5.46,5.53-9.73,.83-3,.37-7.76,3.88-9.13,2.95-1.16,6.11,1.6,9.25,1.26,3.18-.34,5.11-3.54,7.09-6.08s5.63-4.77,8.15-2.8c.77,.6,1.27,1.52,2.07,2.08,1.96,1.39,4.6,.18,6.91-.47,4.6-1.29,10.49,.76,11.68,5.44,.2,.8,.26,1.64,.61,2.39,1.08,2.34,4.16,2.63,6.7,2.81,2.54,.18,5.69,1.19,5.94,3.75,.25,2.58-2.81,4.79-2.13,7.29,.32,1.18,1.39,1.95,2.14,2.91,1.33,1.69,1.67,4.13,.84,6.13-.57,1.38-1.65,2.54-2.02,3.98-.91,3.56,3.23,6.83,6.82,6.24s6.26-3.68,8.04-6.88c1.42-2.57,2.5-5.57,1.79-8.43-.35-1.4-1.11-2.68-1.37-4.1-.4-2.18,.41-4.38,1.14-6.47,1.29-3.72,2.32-7.88,1.47-11.82-.41-1.89-.61-3.25-.8-4.95-.18-1.64,.05-2.86-1.1-4.3-1.4-1.75-3.44-3.18-3.87-5.38-.6-3.07,2.25-5.88,2.11-9.01-.06-1.46-.79-2.82-1.64-3.99-2.6-3.59-6.66-6.06-11.01-6.72-1.99-.3-4.09-.26-5.87-1.2-3.26-1.73-4.22-6.05-6.98-8.51-2.72-2.42-6.71-2.65-10.32-2.28-3.61,.37-7.27,1.2-10.81,.42-5.23-1.15-9.72-5.72-15.04-5.12-7.29,.82-10.39,10.45-17.19,13.22-4.46,1.82-10.01,.45-13.88,3.33-5.58,4.15-4.34,14.18-6.63,20.21-3.25,8.53-4.88,14.96-1.08,23.87,1.09,2.57,2.46,5.28,1.91,8.03-.24,1.2-.84,2.3-1.18,3.47-1.21,4.12,.84,8.55,3.65,11.77s6.36,5.72,9.08,9.02c1.28,1.56,2.39,3.31,3.97,4.55,1.59,1.24,3.86,1.88,5.6,.89-.84-1.28-.83-3.09,.03-4.36,.7-1.04,1.89-1.72,2.41-2.86,.34-.75,.34-1.61,.3-2.43-.2-3.61-1.29-7.18-3.14-10.27-.4-.67-.84-1.33-1.27-2Z"/><path class="cls-34" d="M783.97,431.96c-1.72-1.56-4.09-2.68-6.32-2.06-.93,.26-1.77,.81-2.7,1.09-3.11,.92-6.17-1.36-9.3-2.19-3.45-.91-7.32,.08-9.93,2.53-1.75,1.64-2.92,4.45-1.59,6.46,.35,.53,.85,.96,1.21,1.49,1.35,2.04,.11,4.9-1.77,6.46-1.87,1.56-4.26,2.35-6.19,3.84-3.62,2.79-5.13,8.08-3.53,12.39s6.16,7.3,10.7,6.99c2.22-.15,4.51-1,6.62-.27,1.14,.39,2.09,1.21,3.15,1.8,3.69,2.07,8.45,1.19,11.97-1.16,3.52-2.34,6.04-5.92,8.33-9.5,.89-1.4,1.81-3.01,1.44-4.63-1.2-5.32-6.13-4.61-1.49-10,3.69-4.29,3.9-9.17-.59-13.22Z"/></g><path class="cls-20" d="M979.1,769.66c-38.76-28.48-71.06-77.83-90.66-121.29-3.48-7.72-31.86-90.82-45.43-90.82,0,0-57.33,.82-57.33,.82,0,0-57.58,85.79-35.65,199.17,7.03,36.33,13.54,66.41,19.15,90.53,23.52,59.57,78.17,9.07,104.17-11.03,15.18-11.73,53.47-21.86,81.38-32.84,25.81-10.15,42.76-21.02,24.35-34.54Z"/></g><polygon class="cls-14" points="1086.04 987.96 1116.39 995.71 1116.39 1006.38 1067.92 1006.38 1066.2 997.17 1086.04 987.96"/><polygon class="cls-14" points="957.41 992.01 973.89 998.62 973.89 1006.38 931.46 1006.38 931.23 991.84 957.41 992.01"/><path class="cls-20" d="M847.09,559.52l26.95,16.45s80.46,94.03,81.43,96.94,7.76,38.78,6.79,37.81-31.02-8.72-31.02-8.72l-61.07-57.19-23.07-85.27Z"/><polygon class="cls-25" points="955.47 672.91 934.14 680.66 907 731.07 919.6 742.7 962.26 710.71 955.47 672.91"/><g><path class="cls-7" d="M1007.78,596.12c-18.22-10.75-47.31-11.43-61.27,3.09,2.55-19.98-21.53-44.56-41.33-52.02-52.25-19.68-97.69,31.62-95.56,81.78,1.15,27,8.59,53.68,18.45,79.17,8.26,21.34,32.66,69.9,32.83,69.86,.07,.16,53.2-11.27,75.01-18.22,26.04-8.29,51.5-19.23,73.25-35.26,40.41-29.78,46.73-100.03-1.36-128.4Z"/><g class="cls-31"><path d="M996.97,724.9c-20.19,10.06-41.88,18.19-63.79,23.6-21.19,5.23-44.22,7.6-65.57,1.85-10.25-2.76-19.36-7.42-27.06-13.73,9.72,20.78,20.69,42.53,20.8,42.5,.07,.16,53.2-11.27,75.01-18.22,26.04-8.29,51.5-19.23,73.25-35.26,7.04-5.19,13.04-11.6,17.9-18.81-9.66,6.82-19.95,12.79-30.53,18.06Z"/></g><path class="cls-2" d="M1004.23,707.6c-13.31-5.94-26.61-11.87-39.92-17.81,4.02-20.6,8.04-41.2,12.06-61.8,.58-2.98-3.22-4.55-5.17-2.48-25.44,27.02-50.89,54.05-76.33,81.07-1.47,1.57-2.95,3.13-4.42,4.7,3.14-24.31,6.28-48.62,9.41-72.92,.5-3.9,1.01-7.8,1.51-11.7,.3-2.35-2.46-4.66-4.6-2.99-9.91,7.79-19.82,15.59-29.74,23.38-14.7-7.04-29.4-14.08-44.1-21.12-3.45-1.65-6.03,3.71-2.57,5.36,15.26,7.31,30.51,14.61,45.77,21.92,.89,.43,2.15,.41,2.95-.22,8.49-6.68,16.99-13.36,25.48-20.04-3.22,24.94-6.44,49.88-9.66,74.81-.5,3.9-1.01,7.8-1.51,11.7-.38,2.92,3.13,4.65,5.17,2.48,25.44-27.02,50.89-54.05,76.33-81.07,1.22-1.29,2.43-2.59,3.65-3.88-3.51,18.01-7.03,36.01-10.54,54.02-.24,1.25,.47,2.68,1.64,3.21,14,6.25,28.01,12.5,42.01,18.74,3.49,1.56,6.07-3.8,2.57-5.36Z"/></g><polygon class="cls-42" points="985.52 740.76 968.11 724.43 952.64 726.86 952.1 737.33 966.53 744.54 973.89 748.52 985.52 740.76"/><polygon class="cls-42" points="844.8 691.68 862.14 698.9 873.07 723.49 861.23 726.22 843.02 709.83 844.8 691.68"/><polygon class="cls-25" points="781.49 565.3 717 686.48 738.33 710.71 843.99 710.71 846.9 691.32 771.28 670 806.18 613.77 785.83 558.52 781.49 565.3"/></g><g><g><rect class="cls-39" x="717.97" y="773.24" width="150.26" height="89.18"/><path class="cls-24" d="M724.27,918.16h-14.54v-316.02c0-4.32-1.15-7.5-3.53-9.73-4.34-4.07-12.22-4.52-14.87-4.35l-.5,.02h-31.02v-14.54h30.79c2.63-.16,16.16-.46,25.46,8.18,5.37,4.99,8.21,12.05,8.21,20.42v316.02Z"/><rect class="cls-39" x="621.03" y="570.15" width="59.13" height="21.33" rx="6.18" ry="6.18"/><path class="cls-24" d="M875.49,1016.6h-14.54v-251.6c0-15.16-5.31-26.52-15.77-33.77-6.83-4.73-13.7-6.17-15.33-6.46h-112.37v-14.54h113.4l.46,.06c.46,.06,11.33,1.52,22.12,8.99,10.05,6.96,22.03,20.54,22.03,45.72v251.6Z"/><rect class="cls-24" x="717.97" y="858.27" width="150.26" height="14.54"/><polygon class="cls-24" points="978.25 1025.77 906.21 1025.77 888.76 925.16 720.88 925.16 720.88 910.62 901 910.62 918.45 1011.22 978.25 1011.22 978.25 1025.77"/><rect class="cls-40" x="860.47" y="962.75" width="15.51" height="48.47"/><g><g><circle class="cls-24" cx="846.41" cy="1018.49" r="30.54"/><path class="cls-29" d="M845.94,1002.5c8.82,0,16.46,7.18,16.46,16s-7.18,16-16,16-16-7.18-16-16,7.18-16,16-16h-.47Zm.47-14.54c-16.86,0-30.54,13.67-30.54,30.54s13.67,30.54,30.54,30.54,30.54-13.67,30.54-30.54-13.67-30.54-30.54-30.54h0Z"/></g><path class="cls-40" d="M863.1,992.01l-20.54,20.54c-2.06,1.39-3.42,3.75-3.42,6.43,0,4.28,3.47,7.76,7.76,7.76,2.79,0,5.22-1.48,6.59-3.68l20.33-20.33-10.71-10.71h0Z"/></g><rect class="cls-39" x="916.69" y="1006.38" width="63.98" height="21.33" rx="6.43" ry="6.43"/></g><g><path class="cls-29" d="M717.94,797.96c50.59,0,91.15,53.82,91.15,120.21s-41.01,120.21-91.61,120.21-91.61-53.82-91.61-120.21,41.01-120.21,91.61-120.21h.46Zm-.46-11.63c-14.37,0-28.26,3.67-41.3,10.91-12.32,6.84-23.33,16.56-32.73,28.88-18.84,24.72-29.21,57.41-29.21,92.05s10.37,67.33,29.21,92.05c9.39,12.33,20.4,22.04,32.73,28.88,13.04,7.24,26.94,10.91,41.3,10.91,14.37,0,28.26-3.67,41.3-10.91,12.32-6.84,23.33-16.56,32.73-28.88,18.84-24.72,29.21-57.41,29.21-92.05s-10.37-67.33-29.21-92.05c-9.39-12.33-20.4-22.04-32.73-28.88-13.04-7.24-26.94-10.91-41.3-10.91h0Z"/><path class="cls-24" d="M717.94,807.65c21.37,0,41.18,11.15,56.6,31.39,16.02,21.03,24.85,49.12,24.85,79.12s-8.82,58.1-24.85,79.12c-15.43,20.24-35.69,31.39-57.07,31.39-21.37,0-41.64-11.15-57.07-31.39-16.02-21.03-24.85-49.12-24.85-79.12s8.82-58.1,24.85-79.12c15.43-20.24,35.69-31.39,57.07-31.39h.46Zm-.46-9.69c-50.59,0-91.61,53.82-91.61,120.21s41.01,120.21,91.61,120.21,91.61-53.82,91.61-120.21-41.01-120.21-91.61-120.21h0Z"/><rect class="cls-24" x="716.03" y="804.74" width="2.91" height="112.93"/><rect class="cls-24" x="689.92" y="820.25" width="2.91" height="104.43" transform="translate(-343.6 462.57) rotate(-30)"/><rect class="cls-24" x="674.46" y="845.68" width="2.91" height="96" transform="translate(-435.99 1032.2) rotate(-60)"/><rect class="cls-24" x="625.87" y="916.22" width="91.61" height="2.91"/><rect class="cls-24" x="630.81" y="939.45" width="92.9" height="2.91" transform="translate(-379.75 464.76) rotate(-30)"/><rect class="cls-24" x="637.9" y="962.17" width="106.11" height="2.91" transform="translate(-489.05 1080.11) rotate(-60)"/><rect class="cls-24" x="716.03" y="917.68" width="2.91" height="112.93"/><rect class="cls-24" x="742.59" y="910.56" width="2.91" height="106.24" transform="translate(-382.16 501.13) rotate(-30)"/><rect class="cls-24" x="756.73" y="894.18" width="2.91" height="94" transform="translate(-435.99 1127.2) rotate(-60)"/><rect class="cls-24" x="717.48" y="916.22" width="86.76" height="2.91"/><rect class="cls-24" x="711.3" y="893.15" width="92.28" height="2.91" transform="translate(-345.85 498.65) rotate(-30)"/><rect class="cls-24" x="690.71" y="869.86" width="107.07" height="2.91" transform="translate(-382.47 1080.12) rotate(-60)"/><g><ellipse class="cls-24" cx="717.48" cy="918.16" rx="13.3" ry="17.45"/><path class="cls-29" d="M717.94,900.71c7.34,0,12.84,7.81,12.84,17.45s-5.95,17.45-13.3,17.45-13.3-7.81-13.3-17.45,5.95-17.45,13.3-17.45h.46Zm-.46-4.85c-10.01,0-18.14,10-18.14,22.3s8.14,22.3,18.14,22.3,18.14-10,18.14-22.3-8.14-22.3-18.14-22.3h0Z"/></g></g></g></g><g><path class="cls-13" d="M1089.97,922.96s-5.57,7.42-12.99-2.78c-7.42-10.21-12.06-7.42-13.92-2.78-1.86,4.64,4.04,2.99,9.28,11.14,8.35,12.99,17.63,22.27,20.42,23.2,2.78,.93,11.04,2.81,12.48,8.36,1.44,5.56,3.3-18.57,2.37-19.5-.93-.93-17.63-17.63-17.63-17.63Z"/><path class="cls-13" d="M1163.84,955.78s-9.56,26.55-4.89,33.79c4.68,7.24,17.61,31.24,15.65,35.3-1.96,4.06-.95,5.9,2.52,4.6,3.47-1.31,8.28-4.54,6.29-13.62-1.99-9.08-5.99-19.62-2.99-27.25,3-7.62-3.69-30.08-3.69-30.08l-12.89-2.75Z"/><path class="cls-17" d="M1129.88,871.92s9.28-3.71,11.14,7.42,16.7,27.84,37.12,38.05c19.96,9.98,40.6,27.83,26.8,56.6-13.8,28.78-56.49,12.07-67.63,0-11.14-12.06-35.27-15.78-44.55-35.27-9.28-19.49,0-31.55-.93-38.05-.93-6.5,38.05-28.77,38.05-28.77Z"/><path class="cls-17" d="M1095.38,937.27l-.4,4.62s2.25,4.49,8.71,15.05c6.46,10.56,6.09,39.48,5.3,42.57-.79,3.09-3.58,4.96,1.03,6.41,4.61,1.45,6.84,.06,9.62-13.91,2.78-13.97,3.55-10.75,4.75-18.54,1.2-7.79-1.13-17.47-1.13-17.47l-27.87-18.71Z"/><path class="cls-17" d="M1163.5,976.36s-5.09,13.58,5.14,23.25,19.64,14.05,23.33,21.08c3.68,7.03-4.38,9.42,1.76,9.41,6.14,0,10.26-.95,9.71-8.57-.55-7.62-13.01-14.23-11.32-24.9,1.69-10.67,9.91-12.85,10.86-20.72,.96-7.86-23.33-21.08-23.33-21.08l-17.63,22.07,1.48-.54Z"/><path class="cls-13" d="M1203.57,965.79c1.51,.69,9.44,4.48,16.23-2.82,6.79-7.3,7.15-17.7-.51-24.1-7.66-6.4-13.44,.54-12.75,2.9,.69,2.36,8.94,11.46,.41,18.58-4.11,2.62-3.39,5.44-3.39,5.44Z"/><path class="cls-1" d="M1088.68,897.12l3.4,2.75s16.97,5.74,36.6-15.83c7.77-11.48,5.36-13.45,5.36-13.45l-4.35,.91s-8.34,25.11-41.01,25.63Z"/><path class="cls-3" d="M1105.72,837.7s-1.67-2.62-6.5-2.79c-4.83-.17-12.28,7.64-14.07,8.26-1.79,.62-6.09,1.62-1.8,3.3,4.3,1.68,20.2-3.9,22.37-8.77Z"/><path class="cls-44" d="M1122.24,848.49s-7.53-10.63-18.85-10.86c-6.69-.14-12.73,2.59-17.81,6.8-2.59,2.14-4.64,4.74-7.07,7.02-1.61,1.51-3.61,2.18-5.18,3.83-3.73,3.91-5.57,11.01-4.22,16.24,1.35,5.23-4.77,20.44,12.62,24.42,17.39,3.98,40.64-6.23,45.68-15.22,5.05-8.98,9.58-18.1-5.17-32.23Z"/><path class="cls-3" d="M1119.39,849.73s5.22-3.07,9.53-.86c4.3,2.2,7.75,1.47,7.57,6.3-.17,4.83,.48,16.92-5.35,20.56-5.82,3.63-4.33-6.27-7.22-9.74-2.89-3.46-7.71-14.83-4.53-16.26Z"/></g></g><polygon class="cls-42" points="623.94 568.15 650.94 561 662.95 563.39 668.19 570.15 657.19 570.15 653.94 579 659.8 591.48 675.46 591.29 669.94 602 649.32 604.82 622.94 593 623.94 568.15"/><polygon class="cls-11" points="485.91 392.11 504.02 398.26 537.94 525 626.94 566 623.47 595.32 526.55 581.32 487.77 561.94 457.84 461.64 464.27 418.62 485.91 392.11"/><polygon class="cls-12" points="1196.48 526.5 1174.94 513 1146.94 526 1146.94 539 1171.94 539 1196.48 542.88 1196.48 526.5"/><polygon class="cls-12" points="1009.94 513 1027.94 502 1052.94 507 1052.94 525 1019.13 536.76 1013.94 534 1009.94 513"/><g><polygon class="cls-41" points="348.79 394.65 374.15 406.12 445.56 551.89 437.74 583.2 397.63 572.43 336.97 445.26 348.79 394.65"/><path class="cls-14" d="M251.94,989.72v24.17l16.11,16.11h12.5c5.36,0,8.85-5.64,6.45-10.43l-2.84-5.68-8.06-16.11-8.06-16.11-16.11,8.06Z"/><path class="cls-14" d="M331.94,985.91v24.17l16.11,16.11,13.36-4.45c4.97-1.66,6.45-7.96,2.75-11.66h0s-8.06-16.11-8.06-16.11l-8.06-16.11-16.11,8.06Z"/><polygon class="cls-18" points="198.53 706.92 226.79 853.31 245.67 993 275.94 993 292.02 851.25 304.94 684.41 198.53 706.92"/><polygon class="cls-18" points="373.98 694.03 380.98 839.22 359.91 991.09 329.87 992.66 317.56 841.52 287.43 706.92 373.98 694.03"/><g><path class="cls-42" d="M300.43,397.45c9.14,2.78,18.28,5.55,27.42,8.33,3.08-7.93,5.6-16.12,7.53-24.44,8.41,.22,18.5-.53,23.03-8.65,1.43-2.56,2.06-5.53,2.67-8.43,2.52-12.01,5.04-24.02,7.56-36.03,.87-4.15,1.75-8.44,1.13-12.58-1.08-7.27-6.48-12.57-12.07-16.34-14.26-9.64-32.45-13.05-48.69-6.74-4.32,1.68-8.57,4.11-11.64,7.95-4.73,5.92-5.96,14.16-6.97,21.9-.94,7.14-1.87,14.27-2.81,21.41-1.08,8.21-1.77,17.77,3.52,23.29,2.81,2.93,6.95,4.2,9.17,7.71,3.92,6.19-.21,14.94,.14,22.64Z"/><path class="cls-43" d="M327.36,316.12c-7.3,6.65-15.13,12.36-24.47,15.63-5.74,2.01-11.37,2.27-12.99,9.31-1.55,6.7,1.42,14.96,6.24,19.47,.83,.77,1.75,1.52,2.2,2.57,.88,2.08-.58,4.62-2.62,5.54-2.04,.93-4.41,.6-6.53-.07-6.44-2.04-11.67-7.01-15.3-12.79-7.67-12.18-8.73-28.06-4.28-41.9,4.38-13.64,13.82-26.03,25.6-33.79,10.87-7.16,21.7-14.69,35.36-12.64,7.7,1.16,20.21,8.23,18.66,17.93-1.63,10.19-14.84,23.9-21.86,30.73Z"/><path class="cls-43" d="M350.79,317.8c4.52,5.09,10.01,10.11,11,16.7,.43,2.89-.06,5.82-.64,8.67-1.03,5.1-2.32,10.16-3.85,15.14-1.6,5.18-3.84,10.99-8.32,14.5-1.82,1.42-13.78,6.61-5.04,9.7,2.56,.9,5.33-.24,7.69-1.48,18.7-9.85,32.69-28.37,34.51-48.94,1.1-12.39-2.59-25.21-9.98-35.51-6.75-9.41-20.93-21.88-33.89-17.34-17.26,6.05,1.73,30.94,8.52,38.57Z"/></g><path class="cls-41" d="M379.04,456.99c1.98-17.78-.48-44.35-16.83-55.39-14.12-9.54-25.56-10.6-42.34-10.6h-31.87l-6.8,.45s-54.78,36.2-80.22,136.96c-23.71,93.94-38.15,225.01-14.67,227.94,.39,.05,.79,0,1.22-.11,3.53,.48,13.51,1.79,27.9,3.29h0c18.42,1.05,36.9,1.38,55.35,1.28,31.78-.18,64.9,1.65,94.21-12.68,22.27-10.88,50.48-25.58,40.07-54.71-5.85-15.25-12.63-33.55-19.18-55.45-25.44-85.11-10.76-145.77-6.85-180.99Z"/><polygon class="cls-41" points="281.21 391.45 256.75 401.23 157.94 518.63 163.81 548.95 274.36 619.39 290.99 594.93 210.77 518.63 274.36 454.06 281.21 391.45"/><g><g><rect class="cls-5" x="233.79" y="401.16" width="184.64" height="245.76" transform="translate(145.85 -66.27) rotate(14.91)"/><g class="cls-36"><polygon points="221.31 612.37 223.98 613.08 380.24 659.91 435.93 434.22 428.05 434.37 221.31 612.37"/></g><rect class="cls-45" x="243.46" y="409.03" width="166.02" height="227.38" transform="translate(145.52 -66.41) rotate(14.91)"/><g class="cls-10"><polygon points="274.86 390.43 390.25 421.16 248.87 487.26 274.86 390.43"/></g><g><g class="cls-33"><rect x="319.11" y="411.59" width="72.1" height="6.75" transform="translate(118.75 -77.42) rotate(14.91)"/></g><path class="cls-11" d="M381.84,397.44l-1.08-.29,.19-.73c1.82-6.85-3.09-14.1-10.98-16.2l-10.39-2.77c-7.89-2.1-15.76,1.75-17.58,8.6l-.19,.73-1.08-.29c-7.89-2.1-15.76,1.75-17.58,8.6l-3.69,13.85,69.67,18.56,3.69-13.85c1.82-6.85-3.09-14.1-10.98-16.2Zm-11.45-2.74l-18.36-4.89c-1.88-.5-3-2.44-2.51-4.31,.5-1.87,2.44-2.99,4.32-2.49l18.36,4.89c1.88,.5,3,2.44,2.51,4.31-.5,1.87-2.44,2.99-4.32,2.49Z"/></g></g><g class="cls-30"><path class="cls-37" d="M303.97,464.85c-7.85-2.09-15.7-4.18-23.55-6.27-.66-.18-1.38,.23-1.55,.9-2.09,7.83-4.17,15.66-6.26,23.49-.18,.66,.24,1.37,.9,1.55,7.85,2.09,15.7,4.18,23.55,6.27,.36,.1,.67,.04,.92-.11,.02,0,.03-.02,.05-.03,0,0,.02-.01,.03-.02,.25-.14,.46-.38,.55-.74,2.09-7.83,4.17-15.66,6.26-23.49,.18-.66-.24-1.37-.9-1.55Zm-7.48,23.17c-7.03-1.87-14.07-3.75-21.1-5.62,1.87-7.02,3.74-14.03,5.6-21.05,7.03,1.87,14.07,3.75,21.1,5.62-1.87,7.02-3.74,14.03-5.6,21.05Z"/><path class="cls-37" d="M292.41,508.29c-7.85-2.09-15.7-4.18-23.55-6.27-.66-.18-1.38,.23-1.55,.9-2.09,7.83-4.17,15.66-6.26,23.49-.18,.66,.24,1.37,.9,1.55,7.85,2.09,15.7,4.18,23.55,6.27,.36,.1,.67,.04,.92-.11,.02,0,.03-.02,.05-.03,0,0,.02-.01,.03-.02,.25-.14,.46-.38,.55-.74,2.09-7.83,4.17-15.66,6.26-23.49,.18-.66-.24-1.37-.9-1.55Zm-7.48,23.17c-7.03-1.87-14.07-3.75-21.1-5.62,1.87-7.02,3.74-14.03,5.6-21.05,7.03,1.87,14.07,3.75,21.1,5.62-1.87,7.02-3.74,14.03-5.6,21.05Z"/><path class="cls-37" d="M280.84,551.73c-7.85-2.09-15.7-4.18-23.55-6.27-.66-.18-1.38,.23-1.55,.9-2.09,7.83-4.17,15.66-6.26,23.49-.18,.66,.24,1.37,.9,1.55,7.85,2.09,15.7,4.18,23.55,6.27,.36,.1,.67,.04,.92-.11,.02,0,.03-.02,.05-.03,0,0,.02-.01,.03-.02,.25-.14,.46-.38,.55-.74,2.09-7.83,4.17-15.66,6.26-23.49,.18-.66-.24-1.37-.9-1.55Zm-7.48,23.17c-7.03-1.87-14.07-3.75-21.1-5.62,1.87-7.02,3.74-14.03,5.6-21.05,7.03,1.87,14.07,3.75,21.1,5.62-1.87,7.02-3.74,14.03-5.6,21.05Z"/></g><polygon class="cls-47" points="285.99 469.58 291.88 469.22 293.45 475.42 324.27 463.71 327.11 465.11 290.49 481.7 285.99 469.58"/><polygon class="cls-47" points="272.16 513.6 278.06 513.24 279.63 519.44 310.44 507.73 313.29 509.13 276.66 525.72 272.16 513.6"/><polygon class="cls-47" points="260.72 554.58 266.62 554.22 268.19 560.42 299 548.71 301.85 550.11 265.22 566.7 260.72 554.58"/><g class="cls-35"><rect class="cls-37" x="290.41" y="576.16" width="85.99" height="12.16" transform="translate(161.07 -66.19) rotate(14.91)"/></g><g class="cls-35"><rect class="cls-37" x="302.67" y="530.15" width="85.99" height="12.16" transform="translate(149.64 -70.89) rotate(14.91)"/></g><g class="cls-35"><rect class="cls-37" x="314.92" y="484.15" width="85.99" height="12.16" transform="translate(138.22 -75.6) rotate(14.91)"/></g></g><polygon class="cls-38" points="157.94 518.63 201.97 509.82 297.84 594.93 273.38 619.39 163.81 548.95 157.94 518.63"/><polygon class="cls-42" points="294.6 599.16 316.43 610.59 323.28 637.98 310.56 640.91 293.93 622.33 280.48 612.29 294.6 599.16"/><polygon class="cls-41" points="445.56 551.89 424.89 521.66 333.06 489.28 321.32 509.82 414.73 577.02 437.74 583.2 445.56 551.89"/><polygon class="cls-42" points="330.83 493.19 309.58 478.52 279.25 481.45 280.23 493.19 312.52 504.93 323.84 505.42 330.83 493.19"/></g><g><path class="cls-28" d="M624.16,371.48c-2.89,13.47,5.69,26.73,19.16,29.62,5.53,1.18,11.01,.44,15.77-1.78,1.66,7.16,7.3,13.09,14.96,14.73,10.57,2.27,20.97-4.46,23.23-15.03,.33-1.55,.47-3.1,.43-4.62,9.29,1.41,18.2-4.64,20.19-13.96,2.07-9.67-4.09-19.2-13.76-21.27-1.99-.43-3.97-.5-5.89-.27-1.42-10.07-8.96-18.65-19.48-20.91-11.61-2.49-23.07,3.55-27.86,13.89-12.44-1.2-24.08,7.09-26.76,19.6Z"/><path class="cls-28" d="M1030.85,116.45c-5.84-.32-11.54,.11-17.02,1.19-4.23-36.67-35.57-66.14-75.28-68.28-26.82-1.45-51.27,9.91-66.93,28.52-7.29-17.5-25.05-29.93-45.92-30.1-23.09-.18-42.62,14.7-48.45,35.07-7.77-8.18-18.74-13.58-31.17-14.25-25.15-1.36-46.67,17.08-48.07,41.18-.03,.47-.03,.94-.05,1.41-4.42-1.16-9.02-1.9-13.77-2.15-36.48-1.97-67.69,24.77-69.72,59.73-1.66,28.63,16.78,53.89,43.55,63.17-1.47,5.15-2.41,10.51-2.73,16.05-2.46,42.4,31.41,78.71,75.66,81.1,22.24,1.2,42.86-6.41,58.19-19.65,1.92,24.54,23.18,43.98,49.31,44.19,25.32,.2,46.36-17.73,49.74-41.14,11.31,14.58,29.02,24.43,49.42,25.53,29.65,1.6,55.83-15.77,65.67-41.1,6.23,3.66,13.46,5.94,21.26,6.36,25.15,1.36,46.67-17.08,48.07-41.18,.63-10.91-2.98-21.11-9.45-29.14,17.08-10.63,28.82-28.64,30.04-49.63,2.03-34.96-25.9-64.89-62.37-66.86Zm-39.87,116.45c-.09-.09-.17-.19-.25-.29,.11,.07,.22,.13,.33,.2-.02,.03-.05,.06-.07,.09Z"/><path class="cls-22" d="M1061.38,125.51c5.43,9.85,8.23,21.19,7.54,33.11-1.22,20.99-12.96,39-30.04,49.63,6.47,8.03,10.08,18.22,9.45,29.14-1.4,24.1-22.92,42.54-48.07,41.18-7.8-.42-15.04-2.7-21.26-6.36-9.85,25.33-36.02,42.7-65.67,41.1-20.4-1.1-38.11-10.95-49.42-25.53-3.38,23.41-24.42,41.34-49.74,41.14-7.66-.06-14.89-1.78-21.34-4.79,7.44,17.17,25.03,29.32,45.65,29.48,25.32,.2,46.36-17.73,49.74-41.14,11.31,14.58,29.02,24.43,49.42,25.53,29.65,1.6,55.83-15.77,65.67-41.1,6.23,3.66,13.46,5.94,21.26,6.36,25.15,1.36,46.67-17.08,48.07-41.18,.63-10.92-2.98-21.11-9.45-29.14,17.08-10.63,28.82-28.64,30.04-49.63,1.41-24.23-11.59-46.04-31.84-57.81Z"/><path class="cls-22" d="M706.78,359.97c.71,2.66,.84,5.51,.22,8.39-2,9.31-10.9,15.37-20.19,13.96,.04,1.52-.09,3.07-.43,4.62-2.27,10.57-12.67,17.29-23.23,15.03-1.28-.27-2.5-.68-3.65-1.18,2.05,6.49,7.42,11.73,14.56,13.26,10.57,2.27,20.97-4.46,23.23-15.03,.33-1.55,.47-3.1,.43-4.62,9.29,1.41,18.2-4.64,20.19-13.96,1.88-8.76-3.01-17.38-11.13-20.47Z"/></g></g></g></g></svg>